#!OML:ASF E:\emotionWalksFemale\Project 1\Capture day 1\Session 1\Female1.ASF
:FULLY-SPECIFIED
:DEGREES
1479
root 9.11888 15.0004 12.4461 176.079 -178.225 -181.083
lowerback 3.70406 6.74146 11.187
upperback -3.88125 9.85451 2.98261
thorax -4.85182 4.50325 -3.67457
lowerneck -9.71353 -5.39783 -5.32128
upperneck 17.6117 -4.91179 -8.46198
head 6.94806 -3.43252 -2.29583
rclavicle -2.50469e-014 -1.59028e-014
rhumerus 20.5028 4.60033 -63.8787
rradius 27.2386
rwrist 37.09
rhand 0.121502 304.699
rfingers 7.12502
rthumb 25.7067 -443.585
lclavicle -2.50469e-014 -1.59028e-014
lhumerus -68.499 0.904359 34.0786
lradius 38.0216
lwrist -11.1824
lhand 0.704905 -25.8257
lfingers 7.12502
lthumb 26.2654 2.37632
rfemur 33.7548 12.1379 35.9588
rtibia 2.22639e-014
rfoot -13.0164 -23.5399
rtoes -13.1051
lfemur -31.8912 -24.4617 -15.8946
ltibia 25.2165
lfoot -23.1445 15.7456
ltoes -26.9354
1480
root 9.13665 14.9659 12.634 176.023 -177.908 -181.11
lowerback 3.89458 6.86269 11.7186
upperback -4.0466 10.0894 2.92712
thorax -5.01563 4.57968 -4.04959
lowerneck -10.2573 -5.32854 -4.96702
upperneck 18.0567 -4.73413 -8.8132
head 7.17253 -3.38148 -2.48309
rclavicle 1.24638e-013 5.88403e-014
rhumerus 22.1454 5.63303 -63.2403
rradius 27.9758
rwrist 36.0008
rhand -2.35819 304.734
rfingers 7.12502
rthumb 23.3298 -443.872
lclavicle 1.24638e-013 5.88403e-014
lhumerus -68.0986 1.42529 33.3679
lradius 39.4182
lwrist -8.67516
lhand 1.22209 -25.4437
lfingers 7.12502
lthumb 26.7604 2.68356
rfemur 34.584 11.8775 35.8286
rtibia -4.45278e-014
rfoot -12.1475 -23.04
rtoes -15.4659
lfemur -31.118 -22.4925 -16.9504
ltibia 25.7673
lfoot -22.6807 14.0331
ltoes -28.6862
1481
root 9.15518 14.9493 12.8305 175.797 -177.503 -181.051
lowerback 4.12228 6.97927 12.1476
upperback -4.09052 10.3085 2.89688
thorax -5.08903 4.6614 -4.34118
lowerneck -10.467 -5.21658 -4.73574
upperneck 18.1959 -4.56313 -8.97713
head 7.24759 -3.30792 -2.56949
rclavicle -2.82274e-014 -7.95139e-015
rhumerus 23.7749 6.61736 -62.5722
rradius 28.6547
rwrist 35.1143
rhand -6.23413 304.956
rfingers 7.12502
rthumb 19.6073 -444.076
lclavicle -2.82274e-014 -7.95139e-015
lhumerus -67.8024 2.10661 32.7326
lradius 40.7904
lwrist -6.97944
lhand 1.97146 -26.0152
lfingers 7.12502
lthumb 27.4773 2.00034
rfemur 35.4553 11.7533 35.4819
rtibia -3.18055e-014
rfoot -11.8332 -21.9374
rtoes -10.7029
lfemur -29.9482 -20.7874 -18.0165
ltibia 26.2183
lfoot -22.2645 12.6028
ltoes -28.5761
1482
root 9.17028 14.9146 13.0305 175.533 -177.123 -180.99
lowerback 4.16996 7.07144 12.408
upperback -4.03708 10.448 2.90719
thorax -4.99822 4.72652 -4.46844
lowerneck -10.7477 -5.12313 -4.29841
upperneck 18.3608 -4.4335 -9.23147
head 7.33394 -3.25098 -2.72538
rclavicle -2.0276e-014 -2.06736e-014
rhumerus 25.2773 7.29735 -62.1117
rradius 29.5498
rwrist 34.7075
rhand -10.2067 304.872
rfingers 7.12502
rthumb 15.7846 -444.505
lclavicle -2.0276e-014 -2.06736e-014
lhumerus -67.6395 3.03807 32.0857
lradius 42.2572
lwrist -6.10861
lhand 2.90948 -26.6922
lfingers 7.12502
lthumb 28.3741 1.17752
rfemur 36.5098 11.5457 35.241
rtibia -1.90833e-014
rfoot -10.9971 -21.1407
rtoes -9.40248
lfemur -28.725 -19.0568 -19.0056
ltibia 26.6545
lfoot -21.7877 11.0058
ltoes -27.2854
1483
root 9.17909 14.8729 13.2359 175.468 -176.757 -180.825
lowerback 4.5712 7.20735 12.5186
upperback -4.51995 10.7458 2.73139
thorax -5.6528 4.8012 -4.8131
lowerneck -10.6156 -5.08561 -3.83725
upperneck 18.8613 -4.42241 -9.33555
head 7.45537 -3.23902 -2.84453
rclavicle -9.14409e-015 -3.18055e-014
rhumerus 25.7196 7.36021 -62.365
rradius 30.4871
rwrist 35.3418
rhand -13.8064 304.779
rfingers 7.12502
rthumb 12.3158 -444.838
lclavicle -9.14409e-015 -3.18055e-014
lhumerus -67.6224 3.17835 31.4442
lradius 43.6981
lwrist -5.41945
lhand 3.6852 -26.685
lfingers 7.12502
lthumb 29.1151 1.05891
rfemur 37.4181 11.3627 34.8997
rtibia -2.22639e-014
rfoot -9.91291 -20.425
rtoes -11.0786
lfemur -27.75 -17.6303 -19.8465
ltibia 27.166
lfoot -21.822 9.67042
ltoes -25.5295
1484
root 9.18728 14.8406 13.4492 175.447 -176.349 -180.822
lowerback 3.83278 7.38973 12.692
upperback -4.33468 10.8561 2.81121
thorax -4.99967 4.90338 -4.68981
lowerneck -10.6484 -5.14562 -3.90836
upperneck 18.8385 -4.50742 -9.25943
head 7.45519 -3.27791 -2.8164
rclavicle 2.14687e-014 -1.27222e-014
rhumerus 27.1904 8.6099 -61.0819
rradius 31.4794
rwrist 34.3389
rhand -17.8325 304.009
rfingers 7.12502
rthumb 8.43202 -445.803
lclavicle 2.14687e-014 -1.27222e-014
lhumerus -67.3714 4.27735 31.2345
lradius 44.8479
lwrist -5.04677
lhand 3.98178 -26.5207
lfingers 7.12502
lthumb 29.3983 1.1739
rfemur 38.2184 11.2432 34.674
rtibia 9.54166e-015
rfoot -8.88592 -19.5094
rtoes -11.1827
lfemur -26.8285 -16.4684 -20.383
ltibia 27.8134
lfoot -22.2865 9.00841
ltoes -25.3979
1485
root 9.20278 14.8371 13.6697 175.64 -175.962 -180.865
lowerback 3.88347 7.55513 12.8804
upperback -4.89276 11.1578 2.80609
thorax -5.55568 4.98342 -4.85125
lowerneck -10.3944 -5.26404 -4.206
upperneck 19.487 -4.61015 -9.13608
head 7.63429 -3.35472 -2.75209
rclavicle 4.09496e-014 -7.95139e-015
rhumerus 27.4619 9.88527 -60.2264
rradius 32.5244
rwrist 34.0074
rhand -21.4004 303.681
rfingers 7.12502
rthumb 4.98771 -446.241
lclavicle 4.09496e-014 -7.95139e-015
lhumerus -67.4861 4.1547 31.4512
lradius 45.9633
lwrist -4.40068
lhand 3.68226 -25.8664
lfingers 7.12502
lthumb 29.1123 1.87795
rfemur 38.7111 11.1922 34.3857
rtibia -6.36111e-015
rfoot -7.54391 -18.5767
rtoes -10.6566
lfemur -26.1454 -15.3646 -20.8128
ltibia 28.3758
lfoot -21.8869 8.99789
ltoes -26.6613
